<svg width="44" height="44" viewBox="0 0 44 44" fill="none" xmlns="http://www.w3.org/2000/svg">
<path d="M21.9465 43.2837C10.0336 43.2837 0.304688 33.5548 0.304688 21.6418C0.304688 9.7289 10.0336 0 21.9465 0C33.8594 0 43.5883 9.7289 43.5883 21.6418C43.5883 33.5548 33.8594 43.2837 21.9465 43.2837ZM21.9465 1.48912C10.8278 1.48912 1.7938 10.5231 1.7938 21.6418C1.7938 32.7606 10.8278 41.7945 21.9465 41.7945C33.0653 41.7945 42.0992 32.7606 42.0992 21.6418C42.0992 10.5231 33.0653 1.48912 21.9465 1.48912Z" fill="#333168"/>
<path d="M22.6415 9.62988C20.6064 9.62988 18.9187 11.3175 18.9187 13.3527V17.2244L16.2383 17.274V21.1457L18.9187 21.0961V33.6543H23.535V21.0961H27.2577L27.6548 17.2244H23.535C23.535 16.3805 23.535 15.4374 23.535 14.544C23.535 13.9483 23.9817 13.5016 24.5773 13.5016H27.6548V9.62988H22.6415Z" fill="#333168"/>
</svg>
