<svg width="44" height="44" viewBox="0 0 44 44" fill="none" xmlns="http://www.w3.org/2000/svg">
<path d="M22.2961 43.2837C10.3832 43.2837 0.654297 33.5548 0.654297 21.6418C0.654297 9.7289 10.3832 0 22.2961 0C34.2091 0 43.938 9.7289 43.938 21.6418C43.938 33.5548 34.2091 43.2837 22.2961 43.2837ZM22.2961 1.48912C11.1774 1.48912 2.14341 10.5231 2.14341 21.6418C2.14341 32.7606 11.1774 41.7945 22.2961 41.7945C33.4149 41.7945 42.4488 32.7606 42.4488 21.6418C42.4488 10.5231 33.4149 1.48912 22.2961 1.48912Z" fill="#333168"/>
<path d="M27.6566 33.4537H16.9349C13.4107 33.4537 10.5317 30.5747 10.5317 27.0505V16.2792C10.5317 12.7549 13.4107 9.87598 16.9349 9.87598H27.7062C31.2305 9.87598 34.1094 12.7549 34.1094 16.2792V27.0505C34.1094 30.5747 31.2305 33.4537 27.6566 33.4537ZM16.9349 11.0176C14.056 11.0176 11.723 13.3506 11.723 16.2295V27.0008C11.6734 29.8798 14.056 32.2624 16.9349 32.2624H27.7062C30.5355 32.2624 32.9181 29.8798 32.9181 27.0008V16.2792C32.9181 13.4002 30.5852 11.0673 27.7062 11.0673H16.9349V11.0176Z" fill="#333168"/>
<path d="M22.2962 28.9381C18.2756 28.9381 14.9995 25.662 14.9995 21.6414C14.9995 17.6208 18.2756 14.3447 22.2962 14.3447C26.3168 14.3447 29.5929 17.6208 29.5929 21.6414C29.5929 25.662 26.3168 28.9381 22.2962 28.9381ZM22.2962 15.536C18.9209 15.536 16.1908 18.2661 16.1908 21.6414C16.1908 25.0167 18.9209 27.7468 22.2962 27.7468C25.6715 27.7468 28.4016 25.0167 28.4016 21.6414C28.4016 18.2661 25.6715 15.536 22.2962 15.536Z" fill="#333168"/>
<path d="M30.6347 14.6916C30.6347 15.2873 30.1383 15.7836 29.5427 15.7836C28.9471 15.7836 28.4507 15.2873 28.4507 14.6916C28.4507 14.096 28.9471 13.5996 29.5427 13.5996C30.1383 13.5996 30.6347 14.096 30.6347 14.6916Z" fill="#333168"/>
</svg>
