<svg width="18" height="18" viewBox="0 0 18 18" fill="none" xmlns="http://www.w3.org/2000/svg">
<path fill-rule="evenodd" clip-rule="evenodd" d="M9.1875 1.5C12.5992 1.5 15.375 4.29675 15.375 7.73475C15.375 11.961 10.533 16.125 9.1875 16.125C7.842 16.125 3 11.961 3 7.73475C3 4.29675 5.77575 1.5 9.1875 1.5ZM9.1875 2.625C6.396 2.625 4.125 4.91775 4.125 7.73475C4.125 11.319 8.343 14.811 9.1875 14.997C10.032 14.8103 14.25 11.3182 14.25 7.73475C14.25 4.91775 11.979 2.625 9.1875 2.625ZM9.18825 5.25C10.5322 5.25 11.6257 6.3435 11.6257 7.68825C11.6257 9.03225 10.5322 10.125 9.18825 10.125C7.84425 10.125 6.75075 9.03225 6.75075 7.68825C6.75075 6.3435 7.84425 5.25 9.18825 5.25ZM9.18825 6.375C8.4645 6.375 7.87575 6.96375 7.87575 7.68825C7.87575 8.412 8.4645 9 9.18825 9C9.912 9 10.5007 8.412 10.5007 7.68825C10.5007 6.96375 9.912 6.375 9.18825 6.375Z" fill="#333168"/>
</svg>
