<svg width="111" height="96" viewBox="0 0 111 96" fill="none" xmlns="http://www.w3.org/2000/svg">
<path d="M50.4794 0.207229C46.0455 0.624818 40.6116 1.91735 36.5927 3.52805C33.1588 4.90013 31.8569 5.51657 28.9324 7.20681C21.6306 11.4225 15.8382 16.692 10.9137 23.5723C1.23452 37.1141 -2.14282 53.6188 1.32886 70.382C2.21564 74.6175 4.27223 80.3842 6.49863 84.8186C7.55522 86.9463 9.3288 90.0285 9.83823 90.6847C10.2722 91.2216 10.1024 91.3608 8.95144 91.3807C7.66843 91.3807 6.95146 91.7188 6.5741 92.4943C6.14014 93.3891 6.23448 94.3436 6.85712 95.0794L7.40428 95.7356L54.6492 95.7952C88.5169 95.835 102.083 95.7952 102.592 95.6361C104.271 95.1191 104.573 92.4943 103.064 91.6392C102.838 91.5199 102.253 91.3608 101.762 91.2813L100.856 91.162L102.253 89.0144C105.177 84.4607 107.611 78.7536 109.196 72.6688C111.366 64.4363 111.592 54.2352 109.8 46.2215C107.97 37.989 104.422 30.0151 99.5168 23.1547C97.8187 20.7685 93.5169 16.0557 91.0263 13.8683C83.8943 7.56474 75.2151 3.09058 66.4605 1.1816C61.4039 0.0879182 55.5926 -0.270015 50.4794 0.207229ZM63.102 4.46266C66.5548 5.05921 69.4416 5.79496 71.7812 6.68979C74.4038 7.68405 77.2717 8.9567 78.5736 9.69245C84.3282 13.0133 87.9131 15.7177 92.0074 19.8339C99.7055 27.609 105.253 39.0231 106.988 50.7354C107.479 53.9369 107.479 62.1893 107.007 65.4107C106.158 71.1177 104.687 76.268 102.536 80.8217C101.215 83.6653 98.6112 88.1196 97.3093 89.7899L96.5923 90.7245L96.498 82.1938L96.4036 73.663L89.7244 68.3537C86.0641 65.4505 82.8188 62.8057 82.5169 62.5075L81.9698 61.9507V52.7637C81.9698 44.571 81.932 43.5569 81.6679 43.4575C81.4981 43.3978 77.517 43.3382 72.8 43.3382H64.2341L64.1963 37.651L64.1397 31.9638L62.7246 31.1287C61.9511 30.6514 58.9322 28.9413 56.0266 27.2908C40.6871 18.6209 41.7437 19.1578 41.5172 19.7941C41.4606 19.9731 41.404 24.6262 41.404 30.1344V40.1565H32.1777C27.1022 40.1565 22.8193 40.2162 22.6495 40.2758C22.3853 40.3753 22.3476 41.3298 22.3476 48.906V57.4367L21.3664 58.3316C20.8193 58.8088 18.5551 60.7973 16.3665 62.7262L12.3476 66.226L12.3099 76.9043L12.2533 87.5827L11.5175 86.3895C9.442 83.0687 6.6307 76.4867 5.47977 72.2313C4.04582 66.9418 3.57412 63.3029 3.57412 57.4566C3.59299 51.4712 4.19676 47.2555 5.83826 41.7473C6.85712 38.3867 9.19672 32.799 10.2722 31.2082C10.4797 30.89 10.6495 30.5918 10.6495 30.5321C10.6495 30.2935 13.2344 26.4159 14.5363 24.7455C19.3287 18.5413 24.9513 13.6894 31.6871 10.0106C37.4041 6.88865 42.687 5.17852 49.4606 4.2638C52.1964 3.88599 60.5737 4.0053 63.102 4.46266ZM46.1587 25.5608C46.8002 25.9585 49.1776 27.3107 51.404 28.5635C56.4228 31.4071 58.1209 32.3615 59.8001 33.3359L61.1209 34.0915L61.1775 62.6864L61.2152 91.2614H52.9134H44.6304L44.5738 86.827C44.4606 77.2424 44.6493 24.8449 44.8002 24.8449C44.8757 24.8449 45.4983 25.1631 46.1587 25.5608ZM32.7815 43.6762L35.9324 43.7955V67.5384V91.2614H30.7437H25.5551V67.4986V43.7557L26.6494 43.6762C28.8003 43.537 29.6871 43.537 32.7815 43.6762ZM78.8 69.0894L78.8566 91.2614H74.2906H69.7057V69.0894V46.9175H74.234H78.7622L78.8 69.0894ZM18.3853 78.336V91.2614H16.8759H15.3665V79.7479V68.2344L16.8004 66.8225C17.5929 66.047 18.2721 65.4107 18.3099 65.4107C18.3476 65.4107 18.3853 71.2172 18.3853 78.336ZM88.1018 71.4757L89.498 72.6688L89.5169 81.9551V91.2614H87.9131H86.3094V80.7024C86.3094 73.2653 86.366 70.1632 86.5169 70.2229C86.6301 70.2627 87.3471 70.8195 88.1018 71.4757Z" fill="white"/>
<path d="M76.1397 17.21C75.6303 17.906 75.6114 19.0593 76.1208 19.636C77.234 20.9087 78.951 20.0735 78.951 18.2639C78.951 16.8322 76.9699 16.0964 76.1397 17.21Z" fill="white"/>
<path d="M59.0657 17.9249C58.7449 18.4021 58.6695 19.2174 58.9147 19.5952C59.3676 20.331 60.6694 20.3708 61.0279 19.6748C61.3298 19.0782 61.2543 18.1834 60.877 17.8255C60.3676 17.3283 59.4053 17.388 59.0657 17.9249Z" fill="white"/>
<path d="M68.613 21.3057C68.2545 21.6835 68.33 22.6181 68.7451 22.8567C69.33 23.1749 69.6696 23.0953 70.0093 22.5584C70.2923 22.1011 70.2923 22.0215 70.0093 21.5642C69.6696 21.0273 68.9904 20.908 68.613 21.3057Z" fill="white"/>
<path d="M82.8759 22.1807C80.6495 22.7374 78.5552 24.2288 77.1778 26.2173C76.008 27.9076 76.2722 28.4246 78.3287 28.4246C79.1967 28.4246 79.3476 28.3649 79.8382 27.7684C80.6495 26.7542 81.574 26.1179 82.9136 25.6407C86.1777 24.4675 90.0456 26.277 91.5173 29.6575C91.989 30.7313 92.0645 31.1489 92.0645 32.6005C92.0645 34.072 91.989 34.4498 91.5173 35.464C90.8192 36.9752 89.6117 38.2479 88.2343 38.924C87.2909 39.4012 86.9136 39.4609 85.2721 39.4609C83.5174 39.4609 83.291 39.4211 82.1212 38.8047C80.7816 38.1087 79.4419 36.7366 78.8759 35.4838C78.6872 35.106 78.4608 34.2708 78.3476 33.6345C77.9137 31.2682 77.8193 31.0296 77.2533 30.7114C76.442 30.2739 76.0269 30.3535 75.4608 31.0494C74.9703 31.6659 74.9514 31.7852 75.0458 33.197C75.4042 38.7649 80.3665 43.2589 85.7438 42.8811C88.4608 42.6823 90.3475 41.8073 92.4607 39.7194C95.7815 36.4383 96.3098 30.9301 93.706 26.8736C91.1966 22.996 86.9325 21.1267 82.8759 22.1807Z" fill="white"/>
<path d="M34.4598 23.293C34.0825 23.6907 34.1768 24.6054 34.6296 24.844C35.5164 25.361 36.5164 24.3469 35.9881 23.472C35.7428 23.0743 34.7806 22.9549 34.4598 23.293Z" fill="white"/>
<path d="M19.894 25.8192C18.6865 26.2169 17.7431 27.0123 16.9695 28.285C16.5355 29.0009 16.3091 30.3729 16.5167 30.9496C16.6676 31.3473 16.7997 31.407 17.8186 31.407H18.9506L19.1582 30.5121C19.7808 27.8674 22.4223 27.7879 23.7242 30.3729L24.2525 31.407H25.8562C27.6109 31.407 28.1958 31.7251 28.1958 32.6995V33.1966H21.611C15.2525 33.1966 15.0261 33.2165 14.5356 33.6142C13.6299 34.3699 14.0261 35.9607 15.2148 36.2788C15.4601 36.3385 18.7242 36.3783 22.4789 36.3385C29.026 36.2788 29.3279 36.2589 29.8185 35.8612C30.8185 35.0857 31.1203 34.4693 31.1203 33.1171C31.1203 32.0831 31.026 31.7251 30.5543 30.9098C30.2336 30.3729 29.6109 29.6571 29.1581 29.319C28.3656 28.7423 28.309 28.7225 26.1392 28.7423C24.7808 28.7622 24.1015 28.7026 24.3845 28.6032C25.3845 28.2054 24.4978 26.4953 22.9695 25.9584C22.0449 25.6204 20.7053 25.5607 19.894 25.8192Z" fill="white"/>
<path d="M35.1036 33.5158C34.9338 33.6749 34.8018 33.9533 34.8018 34.0925C34.8018 34.4305 35.3112 34.9873 35.6319 34.9873C36.0282 34.9873 36.5187 34.2913 36.3867 33.9135C36.2734 33.6152 35.7451 33.1976 35.481 33.1976C35.4433 33.1976 35.2546 33.3368 35.1036 33.5158Z" fill="white"/>
<path d="M95.649 48.051C92.9886 49.0651 91.0264 51.2127 91.0264 53.1217C91.0264 54.0563 91.3094 54.275 92.5735 54.275C93.498 54.275 93.6679 54.2154 93.6679 53.9171C93.6679 53.7183 93.8754 53.2609 94.1207 52.903C95.7999 50.5168 98.7999 50.3179 100.838 52.4854C101.724 53.4001 101.989 53.9967 102.423 56.1045C102.536 56.6215 102.611 56.6613 103.441 56.6812C103.932 56.6812 104.479 56.7209 104.649 56.7607C104.819 56.8005 105.121 56.701 105.29 56.5618C105.592 56.3431 105.592 56.184 105.385 54.8517C104.951 51.9684 103.328 49.6617 100.913 48.4686C99.2716 47.6732 97.1395 47.4942 95.649 48.051Z" fill="white"/>
<path d="M87.5178 53.678C86.1782 54.5927 85.7253 57.317 86.6687 58.9078C87.0084 59.5044 87.197 59.6436 87.6876 59.6436C88.7819 59.6237 89.0461 59.226 89.0461 57.5556C89.0461 56.2034 89.0838 56.0443 89.6121 55.4677L90.1781 54.8512L89.8008 54.1155C89.48 53.499 89.3102 53.3797 88.7631 53.3201C88.348 53.3002 87.8763 53.4195 87.5178 53.678Z" fill="white"/>
<path d="M90.9328 58.9472C90.329 59.5637 90.329 60.2596 90.9139 60.9755L91.3667 61.5323L97.6874 61.5919C102.952 61.6516 104.121 61.6118 104.687 61.3533C105.442 61.0153 105.725 60.3193 105.442 59.4642C105.121 58.4899 104.819 58.4501 97.8572 58.4501H91.3856L90.9328 58.9472Z" fill="white"/>
<path d="M50.2715 38.9645V40.3564H51.0262H51.7809V38.9645V37.5725H51.0262H50.2715V38.9645Z" fill="white"/>
<path d="M54.0459 38.9645V40.3564H54.8006C55.461 40.3564 55.5553 40.2968 55.5553 39.8792C55.5553 39.6207 55.6119 39.0043 55.6685 38.4872L55.8006 37.5725H54.9138H54.0459V38.9645Z" fill="white"/>
<path d="M50.2715 44.5319V45.9238H51.0262H51.7809V44.5319V43.1399H51.0262H50.2715V44.5319Z" fill="white"/>
<path d="M54.0459 44.5319V45.9238H54.8949H55.744V44.5319V43.1399H54.8949H54.0459V44.5319Z" fill="white"/>
<path d="M50.2715 50.0992V51.4912L51.0073 51.4316L51.762 51.3918L51.8186 50.0396L51.8752 48.7073H51.0828H50.2715V50.0992Z" fill="white"/>
<path d="M54.0459 49.9791V51.2518L54.7629 51.3313C55.1402 51.391 55.4799 51.4307 55.4799 51.4108C55.4987 51.391 55.5553 50.7944 55.6119 50.0388L55.7063 48.7065H54.8761H54.0459V49.9791Z" fill="white"/>
<path d="M50.2715 55.309C50.2715 56.4624 50.3281 56.6612 50.6111 56.6612C50.7809 56.6612 51.1205 56.7209 51.3658 56.7805C51.762 56.8998 51.7809 56.8601 51.7809 55.4283V53.937H51.0262H50.2715V55.309Z" fill="white"/>
<path d="M54.0849 55.3101L54.1415 56.7617H54.7642C55.1227 56.7617 55.4623 56.6623 55.5189 56.5231C55.5943 56.4038 55.6132 55.7476 55.5943 55.0914L55.5189 53.8784H54.783H54.0283L54.0849 55.3101Z" fill="white"/>
<path d="M50.2715 60.7377V62.0303H51.0262H51.7809L51.7998 61.0758C51.7998 60.5588 51.8375 59.9821 51.8752 59.7832C51.9318 59.5049 51.7998 59.4452 51.1017 59.4452H50.2715V60.7377Z" fill="white"/>
<path d="M54.0459 60.7377V62.0303H54.8572H55.6874L55.6685 60.7377L55.6497 59.4452H54.8572H54.0459V60.7377Z" fill="white"/>
<path d="M50.2715 66.2067V67.5986H51.0262H51.7809V66.2067V64.8147H51.0262H50.2715V66.2067Z" fill="white"/>
<path d="M54.0459 66.2272V67.6191L54.8195 67.5595L55.5742 67.4998L55.6308 66.1476L55.6685 64.8153H54.8572H54.0459V66.2272Z" fill="white"/>
<path d="M50.2715 71.5758V72.9678H51.0262H51.7809V71.5758V70.1838H51.0262H50.2715V71.5758Z" fill="white"/>
<path d="M54.0459 71.5559V72.9678H54.8006H55.5553L55.5742 72.1127C55.5931 71.6554 55.6119 71.0588 55.6308 70.7804C55.6497 70.323 55.5742 70.2833 54.8572 70.2236L54.0459 70.164V71.5559Z" fill="white"/>
<path d="M27.4414 46.9376C27.4414 47.9716 27.4791 48.1307 27.7433 48.0313C27.9131 47.9716 28.2527 47.912 28.498 47.912C28.9131 47.912 28.9508 47.8523 28.9508 46.8183V45.7246H28.1961H27.4414V46.9376Z" fill="white"/>
<path d="M30.46 46.8184V47.9121H31.2147H31.9694V46.8184V45.7247H31.2147H30.46V46.8184Z" fill="white"/>
<path d="M27.4414 51.5909V52.6846H28.1961H28.9508V51.5909V50.4972H28.1961H27.4414V51.5909Z" fill="white"/>
<path d="M30.46 51.5909V52.6846H31.2147H31.9694V51.5909V50.4972H31.2147H30.46V51.5909Z" fill="white"/>
<path d="M27.4414 56.3633V57.457H28.1961H28.9508V56.3633V55.2697H28.1961H27.4414V56.3633Z" fill="white"/>
<path d="M30.46 56.3428C30.46 57.3967 30.46 57.4166 31.0826 57.5161C31.4034 57.5558 31.743 57.5757 31.8373 57.5161C31.9128 57.4763 31.9694 56.9394 31.9694 56.3428V55.269H31.2147H30.46V56.3428Z" fill="white"/>
<path d="M27.4414 61.1348V62.2285H28.1961H28.9508V61.1348V60.0411H28.1961H27.4414V61.1348Z" fill="white"/>
<path d="M30.46 61.1153C30.46 62.1692 30.46 62.1891 31.0826 62.2885C31.4034 62.3283 31.743 62.3482 31.8373 62.2885C31.9128 62.2488 31.9694 61.7119 31.9694 61.1153V60.0415H31.2147H30.46V61.1153Z" fill="white"/>
<path d="M27.4414 66.0276V67.2207L28.1584 67.161L28.8565 67.1014L28.9131 65.9481L28.9697 64.8146H28.1961H27.4414V66.0276Z" fill="white"/>
<path d="M30.46 66.0276V67.2207L31.1769 67.161L31.875 67.1014L31.9316 65.9481L31.9883 64.8146H31.2147H30.46V66.0276Z" fill="white"/>
<path d="M27.4414 70.7805V71.9736H28.1961H28.9508V70.7805V69.5874H28.1961H27.4414V70.7805Z" fill="white"/>
<path d="M30.46 70.7802V71.9932L31.1769 71.9335L31.875 71.8739V70.7802V69.6865L31.1769 69.6268L30.46 69.5672V70.7802Z" fill="white"/>
<path d="M27.4414 75.553V76.7461H28.1961H28.9508V75.553V74.3599H28.1961H27.4414V75.553Z" fill="white"/>
<path d="M30.46 75.5331V76.7461H31.2147H31.9883L31.9316 75.5928L31.875 74.4593L31.1769 74.3996L30.46 74.34V75.5331Z" fill="white"/>
<path d="M27.4414 80.345V81.5381L28.1584 81.4784L28.8565 81.4188L28.9131 80.2654L28.9697 79.132H28.1961H27.4414V80.345Z" fill="white"/>
<path d="M30.46 80.3251V81.5381L31.1769 81.4784L31.875 81.4188V80.3251V79.2314L31.1769 79.1718L30.46 79.1121V80.3251Z" fill="white"/>
<path d="M27.4414 85.0969V86.29H28.1961H28.9508V85.0969V83.9038H28.1961H27.4414V85.0969Z" fill="white"/>
<path d="M30.46 85.077V86.29H31.2147H31.9883L31.9316 85.1367L31.875 84.0032L31.1769 83.9436L30.46 83.8839V85.077Z" fill="white"/>
<path d="M73.0452 51.233C72.9697 51.2927 72.9131 51.8693 72.9131 52.5057V53.6391L73.8565 53.7187L74.7999 53.7783V52.4261V51.0938H73.9885C73.5357 51.0938 73.1018 51.1535 73.0452 51.233Z" fill="white"/>
<path d="M73.347 56.0055C72.9508 56.085 72.9131 56.2043 72.9131 57.2582V58.4116L73.8565 58.4911L74.7999 58.5508V57.1986C74.7999 55.8663 74.7999 55.8663 74.2904 55.8862C73.9885 55.9061 73.5735 55.9657 73.347 56.0055Z" fill="white"/>
<path d="M73.0452 60.7787C72.9697 60.8384 72.9131 61.4349 72.9131 62.0713V63.2246H73.8565H74.7999V61.9321V60.6395H73.9885C73.5357 60.6395 73.1018 60.6992 73.0452 60.7787Z" fill="white"/>
<path d="M72.9511 66.6445L73.0077 67.8973L73.9134 67.9569L74.8002 68.0166V66.7241V65.4116H73.8568H72.8945L72.9511 66.6445Z" fill="white"/>
<path d="M72.9505 71.2772C73.0071 71.8737 73.0825 72.4106 73.1203 72.4504C73.158 72.4902 73.5542 72.5697 74.0071 72.6492L74.7995 72.7686V71.476V70.1835H73.8373H72.875L72.9505 71.2772Z" fill="white"/>
<path d="M72.9894 74.9357C72.8762 75.055 72.895 76.3873 73.0271 76.8844C73.1214 77.2623 73.2724 77.3418 73.9705 77.3418H74.8007V76.0493V74.7567L73.9328 74.7965C73.4611 74.8363 73.046 74.8959 72.9894 74.9357Z" fill="white"/>
<path d="M72.9131 80.2063C72.9131 80.5643 72.9697 81.1211 73.0263 81.4392C73.1206 81.9761 73.1961 82.0159 73.9697 82.0358L74.7999 82.0557V80.783V79.5302H73.8565H72.9131V80.2063Z" fill="white"/>
<path d="M72.9894 84.2814C72.8762 84.4007 72.895 85.3552 73.0271 86.0711C73.1403 86.6477 73.1969 86.6875 73.9705 86.6875H74.8007V85.5143V84.3411L73.9328 84.2615C73.4611 84.2217 73.046 84.2416 72.9894 84.2814Z" fill="white"/>
</svg>
