<svg width="55" height="48" viewBox="0 0 55 48" fill="none" xmlns="http://www.w3.org/2000/svg">
<path d="M24.7905 0.101357C22.613 0.306435 19.9444 0.9412 17.9707 1.73222C16.2843 2.40604 15.645 2.70878 14.2087 3.53886C10.6228 5.60917 7.77815 8.19706 5.35972 11.576C0.606272 18.2264 -1.05234 26.3318 0.652602 34.5642C1.0881 36.6443 2.0981 39.4764 3.19148 41.6541C3.71038 42.699 4.58138 44.2127 4.83156 44.5349C5.04468 44.7986 4.96129 44.867 4.39606 44.8767C3.76597 44.8767 3.41387 45.0428 3.22855 45.4236C3.01543 45.8631 3.06176 46.3318 3.36754 46.6932L3.63625 47.0154L26.8383 47.0447C43.4707 47.0642 50.133 47.0447 50.3832 46.9666C51.2078 46.7127 51.3561 45.4236 50.6148 45.0037C50.5036 44.9451 50.2164 44.867 49.9754 44.8279L49.5307 44.7693L50.2164 43.7146C51.6526 41.4783 52.8479 38.6756 53.6263 35.6873C54.6918 31.6443 54.803 26.6346 53.9228 22.699C53.024 18.656 51.282 14.74 48.8728 11.3709C48.0389 10.199 45.9262 7.88456 44.7031 6.81034C41.2006 3.71464 36.9382 1.51737 32.6388 0.579872C30.1555 0.0427628 27.3016 -0.133018 24.7905 0.101357ZM30.9894 2.1912C32.6851 2.48417 34.1028 2.8455 35.2518 3.28495C36.5398 3.77323 37.9482 4.39823 38.5876 4.75956C41.4137 6.39042 43.1742 7.71854 45.1849 9.74002C48.9655 13.5584 51.6897 19.1639 52.5421 24.9158C52.783 26.4881 52.783 30.5408 52.5514 32.1228C52.1344 34.9256 51.4117 37.4549 50.3554 39.6912C49.7067 41.0877 48.428 43.2752 47.7887 44.0955L47.4366 44.5545L47.3902 40.365L47.3439 36.1756L44.0638 33.5682C42.2661 32.1424 40.6724 30.8435 40.5241 30.6971L40.2554 30.4236V25.9119C40.2554 21.8885 40.2369 21.3904 40.1072 21.3416C40.0238 21.3123 38.0687 21.283 35.7522 21.283H31.5454L31.5269 18.49L31.4991 15.6971L30.8041 15.2869C30.4242 15.0525 28.9417 14.2127 27.5147 13.4021C19.9815 9.14432 20.5003 9.40799 20.3892 9.72049C20.3614 9.80838 20.3336 12.0935 20.3336 14.7986V19.7205H15.8025C13.3099 19.7205 11.2066 19.7498 11.1232 19.7791C10.9934 19.8279 10.9749 20.2967 10.9749 24.0174V28.2068L10.4931 28.6463C10.2244 28.8807 9.11245 29.8572 8.03759 30.8045L6.06394 32.5232L6.04541 37.7674L6.01761 43.0115L5.65623 42.4256C4.63698 40.7947 3.25634 37.5623 2.69112 35.4724C1.9869 32.8748 1.75525 31.0877 1.75525 28.2166C1.76452 25.2771 2.06103 23.2068 2.86717 20.5017C3.36754 18.8514 4.51652 16.1072 5.04468 15.326C5.14661 15.1697 5.23 15.0232 5.23 14.9939C5.23 14.8767 6.49944 12.9724 7.13879 12.1521C9.49235 9.10526 12.2536 6.72245 15.5616 4.91581C18.3692 3.38261 20.9636 2.54276 24.2901 2.09354C25.6337 1.908 29.7478 1.96659 30.9894 2.1912ZM22.6686 12.5525C22.9836 12.7478 24.1511 13.4119 25.2445 14.0271C27.7093 15.4236 28.5432 15.8924 29.3679 16.3709L30.0165 16.742L30.0443 30.7849L30.0628 44.8182H25.9858H21.918L21.8902 42.6404C21.8347 37.9334 21.9273 12.201 22.0014 12.201C22.0385 12.201 22.3443 12.3572 22.6686 12.5525ZM16.099 21.449L17.6464 21.5076V33.1678V44.8182H15.0983H12.5501V33.1482V21.4881L13.0876 21.449C14.1439 21.3806 14.5794 21.3806 16.099 21.449ZM38.6987 33.9295L38.7265 44.8182H36.4842H34.2325V33.9295V23.0408H36.4564H38.6802L38.6987 33.9295ZM9.02905 38.4705V44.8182H8.28778H7.5465V39.1639V33.5096L8.25071 32.8162C8.63988 32.4353 8.97346 32.1228 8.99199 32.1228C9.01052 32.1228 9.02905 34.9744 9.02905 38.4705ZM43.2669 35.1014L43.9526 35.6873L43.9618 40.2478V44.8182H43.1742H42.3866V39.6326C42.3866 35.9803 42.4144 34.4568 42.4885 34.4861C42.5441 34.5057 42.8962 34.7791 43.2669 35.1014Z" fill="#333168"/>
<path d="M37.3925 8.45138C37.1423 8.79318 37.1331 9.35958 37.3833 9.64279C37.93 10.2678 38.7732 9.85763 38.7732 8.96896C38.7732 8.26583 37.8002 7.9045 37.3925 8.45138Z" fill="#333168"/>
<path d="M29.0068 8.80228C28.8492 9.03665 28.8122 9.43704 28.9326 9.62259C29.155 9.98392 29.7944 10.0034 29.9704 9.66165C30.1187 9.36868 30.0816 8.92923 29.8963 8.75345C29.6461 8.50931 29.1736 8.5386 29.0068 8.80228Z" fill="#333168"/>
<path d="M33.6956 10.4627C33.5195 10.6483 33.5566 11.1073 33.7605 11.2245C34.0477 11.3807 34.2145 11.3416 34.3813 11.078C34.5203 10.8534 34.5203 10.8143 34.3813 10.5897C34.2145 10.326 33.8809 10.2674 33.6956 10.4627Z" fill="#333168"/>
<path d="M40.7004 10.8924C39.607 11.1659 38.5785 11.8983 37.9021 12.8748C37.3276 13.7049 37.4573 13.9588 38.4673 13.9588C38.8935 13.9588 38.9676 13.9295 39.2086 13.6366C39.607 13.1385 40.061 12.826 40.7189 12.5916C42.3219 12.0155 44.2215 12.9041 44.9442 14.5643C45.1759 15.0916 45.2129 15.2967 45.2129 16.0096C45.2129 16.7323 45.1759 16.9178 44.9442 17.4159C44.6014 18.158 44.0083 18.783 43.3319 19.1151C42.8686 19.3494 42.6833 19.3787 41.8772 19.3787C41.0154 19.3787 40.9042 19.3592 40.3297 19.0565C39.6719 18.7147 39.014 18.0409 38.736 17.4256C38.6433 17.2401 38.5321 16.8299 38.4765 16.5174C38.2634 15.3553 38.2171 15.2381 37.9391 15.0819C37.5407 14.867 37.3368 14.9061 37.0588 15.2479C36.8179 15.5506 36.8087 15.6092 36.855 16.3026C37.0311 19.0369 39.468 21.244 42.1088 21.0584C43.4431 20.9608 44.3697 20.5311 45.4075 19.5057C47.0383 17.8944 47.2978 15.1893 46.0191 13.1971C44.7867 11.2928 42.6926 10.3748 40.7004 10.8924Z" fill="#333168"/>
<path d="M16.9236 11.4389C16.7383 11.6342 16.7846 12.0834 17.007 12.2006C17.4425 12.4545 17.9336 11.9565 17.6742 11.5268C17.5537 11.3315 17.0811 11.2729 16.9236 11.4389Z" fill="#333168"/>
<path d="M9.7699 12.6796C9.17688 12.875 8.71358 13.2656 8.33367 13.8906C8.12056 14.2421 8.00936 14.916 8.11129 15.1992C8.18542 15.3945 8.25028 15.4238 8.75064 15.4238H9.3066L9.40853 14.9843C9.71431 13.6855 11.0115 13.6464 11.6509 14.916L11.9103 15.4238H12.698C13.5597 15.4238 13.8469 15.58 13.8469 16.0585V16.3027H10.6131C7.49047 16.3027 7.37928 16.3125 7.13836 16.5078C6.69359 16.8789 6.88818 17.6601 7.47194 17.8164C7.59239 17.8457 9.19541 17.8652 11.0393 17.8457C14.2546 17.8164 14.4029 17.8066 14.6438 17.6113C15.1349 17.2304 15.2832 16.9277 15.2832 16.2636C15.2832 15.7558 15.2368 15.58 15.0052 15.1796C14.8477 14.916 14.5419 14.5644 14.3195 14.3984C13.9303 14.1152 13.9025 14.1054 12.8369 14.1152C12.1698 14.125 11.8362 14.0957 11.9752 14.0468C12.4663 13.8515 12.0308 13.0117 11.2803 12.748C10.8262 12.582 10.1683 12.5527 9.7699 12.6796Z" fill="#333168"/>
<path d="M17.2391 16.459C17.1557 16.5371 17.0908 16.6738 17.0908 16.7422C17.0908 16.9082 17.341 17.1816 17.4985 17.1816C17.6931 17.1816 17.934 16.8398 17.8692 16.6543C17.8136 16.5078 17.5541 16.3027 17.4244 16.3027C17.4059 16.3027 17.3132 16.3711 17.2391 16.459Z" fill="#333168"/>
<path d="M46.9733 23.5972C45.6668 24.0953 44.7031 25.15 44.7031 26.0875C44.7031 26.5464 44.8421 26.6539 45.4629 26.6539C45.917 26.6539 46.0004 26.6246 46.0004 26.4781C46.0004 26.3804 46.1023 26.1558 46.2227 25.98C47.0474 24.8082 48.5207 24.7105 49.5214 25.775C49.9569 26.2242 50.0867 26.5171 50.2998 27.5523C50.3554 27.8062 50.3924 27.8257 50.8001 27.8355C51.0411 27.8355 51.3098 27.855 51.3932 27.8746C51.4766 27.8941 51.6248 27.8453 51.7082 27.7769C51.8565 27.6695 51.8565 27.5914 51.7545 26.9371C51.5414 25.5211 50.7445 24.3882 49.5585 23.8023C48.7524 23.4117 47.7053 23.3238 46.9733 23.5972Z" fill="#333168"/>
<path d="M42.9798 26.3613C42.3219 26.8105 42.0995 28.1484 42.5628 28.9297C42.7296 29.2227 42.8223 29.291 43.0632 29.291C43.6006 29.2812 43.7303 29.0859 43.7303 28.2656C43.7303 27.6016 43.7489 27.5234 44.0083 27.2402L44.2863 26.9375L44.101 26.5762C43.9435 26.2734 43.8601 26.2148 43.5914 26.1855C43.3875 26.1758 43.1559 26.2344 42.9798 26.3613Z" fill="#333168"/>
<path d="M44.6571 28.949C44.3606 29.2518 44.3606 29.5935 44.6479 29.9451L44.8703 30.2185L47.9744 30.2478C50.5596 30.2771 51.1341 30.2576 51.4121 30.1307C51.7827 29.9646 51.9217 29.6228 51.7827 29.2029C51.6252 28.7244 51.4769 28.7049 48.0578 28.7049H44.8795L44.6571 28.949Z" fill="#333168"/>
<path d="M24.6885 19.1348V19.8184H25.0591H25.4298V19.1348V18.4512H25.0591H24.6885V19.1348Z" fill="#333168"/>
<path d="M26.542 19.1348V19.8184H26.9126C27.2369 19.8184 27.2833 19.7891 27.2833 19.584C27.2833 19.457 27.3111 19.1543 27.3389 18.9004L27.4037 18.4512H26.9682H26.542V19.1348Z" fill="#333168"/>
<path d="M24.6885 21.8691V22.5527H25.0591H25.4298V21.8691V21.1855H25.0591H24.6885V21.8691Z" fill="#333168"/>
<path d="M26.542 21.8691V22.5527H26.959H27.3759V21.8691V21.1855H26.959H26.542V21.8691Z" fill="#333168"/>
<path d="M24.6885 24.6035V25.2871L25.0499 25.2578L25.4205 25.2383L25.4483 24.5742L25.4761 23.9199H25.0869H24.6885V24.6035Z" fill="#333168"/>
<path d="M26.542 24.5443V25.1693L26.8941 25.2084C27.0794 25.2377 27.2462 25.2572 27.2462 25.2475C27.2555 25.2377 27.2833 24.9447 27.3111 24.5736L27.3574 23.9193H26.9497H26.542V24.5443Z" fill="#333168"/>
<path d="M24.6885 27.1616C24.6885 27.728 24.7163 27.8257 24.8553 27.8257C24.9387 27.8257 25.1054 27.855 25.2259 27.8843C25.4205 27.9429 25.4298 27.9234 25.4298 27.2202V26.4878H25.0591H24.6885V27.1616Z" fill="#333168"/>
<path d="M26.561 27.1621L26.5888 27.875H26.8946C27.0706 27.875 27.2374 27.8262 27.2652 27.7578C27.3023 27.6992 27.3115 27.377 27.3023 27.0547L27.2652 26.459H26.9038H26.5332L26.561 27.1621Z" fill="#333168"/>
<path d="M24.6885 29.8281V30.4629H25.0591H25.4298L25.439 29.9941C25.439 29.7402 25.4576 29.457 25.4761 29.3594C25.5039 29.2227 25.439 29.1934 25.0962 29.1934H24.6885V29.8281Z" fill="#333168"/>
<path d="M26.542 29.8281V30.4629H26.9404H27.3481L27.3389 29.8281L27.3296 29.1934H26.9404H26.542V29.8281Z" fill="#333168"/>
<path d="M24.6885 32.5137V33.1973H25.0591H25.4298V32.5137V31.8301H25.0591H24.6885V32.5137Z" fill="#333168"/>
<path d="M26.542 32.5234V33.207L26.9219 33.1777L27.2925 33.1484L27.3203 32.4844L27.3389 31.8301H26.9404H26.542V32.5234Z" fill="#333168"/>
<path d="M24.6885 35.1504V35.834H25.0591H25.4298V35.1504V34.4668H25.0591H24.6885V35.1504Z" fill="#333168"/>
<path d="M26.542 35.1406V35.834H26.9126H27.2833L27.2925 35.4141C27.3018 35.1895 27.3111 34.8965 27.3203 34.7598C27.3296 34.5352 27.2925 34.5156 26.9404 34.4863L26.542 34.457V35.1406Z" fill="#333168"/>
<path d="M13.4766 23.051C13.4766 23.5588 13.4951 23.637 13.6248 23.5881C13.7082 23.5588 13.875 23.5295 13.9955 23.5295C14.1993 23.5295 14.2178 23.5002 14.2178 22.9924V22.4553H13.8472H13.4766V23.051Z" fill="#333168"/>
<path d="M14.959 22.9922V23.5293H15.3296H15.7003V22.9922V22.4551H15.3296H14.959V22.9922Z" fill="#333168"/>
<path d="M13.4766 25.3359V25.873H13.8472H14.2178V25.3359V24.7988H13.8472H13.4766V25.3359Z" fill="#333168"/>
<path d="M14.959 25.3359V25.873H15.3296H15.7003V25.3359V24.7988H15.3296H14.959V25.3359Z" fill="#333168"/>
<path d="M13.4766 27.6797V28.2168H13.8472H14.2178V27.6797V27.1426H13.8472H13.4766V27.6797Z" fill="#333168"/>
<path d="M14.959 27.67C14.959 28.1876 14.959 28.1973 15.2648 28.2462C15.4223 28.2657 15.5891 28.2755 15.6354 28.2462C15.6725 28.2266 15.7003 27.963 15.7003 27.67V27.1426H15.3296H14.959V27.67Z" fill="#333168"/>
<path d="M13.4766 30.0234V30.5605H13.8472H14.2178V30.0234V29.4863H13.8472H13.4766V30.0234Z" fill="#333168"/>
<path d="M14.959 30.0137C14.959 30.5313 14.959 30.5411 15.2648 30.5899C15.4223 30.6094 15.5891 30.6192 15.6354 30.5899C15.6725 30.5704 15.7003 30.3067 15.7003 30.0137V29.4864H15.3296H14.959V30.0137Z" fill="#333168"/>
<path d="M13.4766 32.4258V33.0117L13.8287 32.9824L14.1715 32.9531L14.1993 32.3867L14.2271 31.8301H13.8472H13.4766V32.4258Z" fill="#333168"/>
<path d="M14.959 32.4258V33.0117L15.3111 32.9824L15.6539 32.9531L15.6817 32.3867L15.7095 31.8301H15.3296H14.959V32.4258Z" fill="#333168"/>
<path d="M13.4766 34.7598V35.3457H13.8472H14.2178V34.7598V34.1738H13.8472H13.4766V34.7598Z" fill="#333168"/>
<path d="M14.959 34.7598V35.3555L15.3111 35.3262L15.6539 35.2969V34.7598V34.2227L15.3111 34.1934L14.959 34.1641V34.7598Z" fill="#333168"/>
<path d="M13.4766 37.1035V37.6895H13.8472H14.2178V37.1035V36.5176H13.8472H13.4766V37.1035Z" fill="#333168"/>
<path d="M14.959 37.0937V37.6895H15.3296H15.7095L15.6817 37.123L15.6539 36.5664L15.3111 36.5371L14.959 36.5078V37.0937Z" fill="#333168"/>
<path d="M13.4766 39.457V40.043L13.8287 40.0137L14.1715 39.9844L14.1993 39.418L14.2271 38.8613H13.8472H13.4766V39.457Z" fill="#333168"/>
<path d="M14.959 39.4473V40.043L15.3111 40.0137L15.6539 39.9844V39.4473V38.9102L15.3111 38.8809L14.959 38.8516V39.4473Z" fill="#333168"/>
<path d="M13.4766 41.791V42.377H13.8472H14.2178V41.791V41.2051H13.8472H13.4766V41.791Z" fill="#333168"/>
<path d="M14.959 41.7812V42.377H15.3296H15.7095L15.6817 41.8105L15.6539 41.2539L15.3111 41.2246L14.959 41.1953V41.7812Z" fill="#333168"/>
<path d="M35.8725 25.1602C35.8354 25.1895 35.8076 25.4727 35.8076 25.7852V26.3418L36.2709 26.3809L36.7342 26.4102V25.7461V25.0918H36.3358C36.1134 25.0918 35.9003 25.1211 35.8725 25.1602Z" fill="#333168"/>
<path d="M36.0207 27.5039C35.8261 27.543 35.8076 27.6016 35.8076 28.1191V28.6855L36.2709 28.7246L36.7342 28.7539V28.0898C36.7342 27.4355 36.7342 27.4355 36.484 27.4453C36.3358 27.4551 36.1319 27.4844 36.0207 27.5039Z" fill="#333168"/>
<path d="M35.8725 29.8477C35.8354 29.877 35.8076 30.1699 35.8076 30.4824V31.0488H36.2709H36.7342V30.4141V29.7793H36.3358C36.1134 29.7793 35.9003 29.8086 35.8725 29.8477Z" fill="#333168"/>
<path d="M35.8266 32.7285L35.8544 33.3438L36.2992 33.373L36.7347 33.4023V32.7676V32.123H36.2714H35.7988L35.8266 32.7285Z" fill="#333168"/>
<path d="M35.8261 35.0039C35.8539 35.2969 35.891 35.5605 35.9095 35.5801C35.9281 35.5996 36.1226 35.6387 36.345 35.6777L36.7342 35.7363V35.1016V34.4668H36.2616H35.7891L35.8261 35.0039Z" fill="#333168"/>
<path d="M35.8451 36.8008C35.7895 36.8594 35.7988 37.5137 35.8636 37.7578C35.91 37.9434 35.9841 37.9824 36.3269 37.9824H36.7346V37.3477V36.7129L36.3084 36.7324C36.0767 36.752 35.8729 36.7812 35.8451 36.8008Z" fill="#333168"/>
<path d="M35.8076 39.3887C35.8076 39.5645 35.8354 39.8379 35.8632 39.9941C35.9095 40.2578 35.9466 40.2773 36.3265 40.2871L36.7342 40.2969V39.6719V39.0566H36.2709H35.8076V39.3887Z" fill="#333168"/>
<path d="M35.8451 41.3906C35.7895 41.4492 35.7988 41.918 35.8636 42.2695C35.9192 42.5527 35.947 42.5723 36.3269 42.5723H36.7346V41.9961V41.4199L36.3084 41.3809C36.0767 41.3613 35.8729 41.3711 35.8451 41.3906Z" fill="#333168"/>
</svg>
