<svg width="18" height="18" viewBox="0 0 18 18" fill="none" xmlns="http://www.w3.org/2000/svg">
<path fill-rule="evenodd" clip-rule="evenodd" d="M8.91495 10.8105L8.99964 10.8105L9.18908 10.8112C10.637 10.8207 13.946 10.967 13.946 13.2098C13.946 15.4378 10.7524 15.5831 9.21164 15.5926L8.64081 15.5926C7.19279 15.5831 3.8832 15.437 3.8832 13.197C3.8832 10.9661 7.19279 10.8207 8.64081 10.8112L8.83026 10.8105C8.85965 10.8105 8.8879 10.8105 8.91495 10.8105ZM8.91495 11.9355C7.13295 11.9355 5.0082 12.1545 5.0082 13.197C5.0082 14.2159 7.00613 14.4541 8.75207 14.4676L8.91495 14.4683C10.6969 14.4683 12.821 14.25 12.821 13.2098C12.821 12.1567 10.6969 11.9355 8.91495 11.9355ZM14.8801 10.5061C16.6974 10.7784 17.0792 11.6319 17.0792 12.3001C17.0792 12.7081 16.9186 13.4529 15.8462 13.8616C15.7802 13.8864 15.7127 13.8984 15.6459 13.8984C15.4194 13.8984 15.2057 13.7604 15.1201 13.5361C15.0092 13.2459 15.1554 12.9204 15.4457 12.8102C15.9542 12.6167 15.9542 12.4029 15.9542 12.3001C15.9542 11.9717 15.5364 11.7422 14.7129 11.6192C14.4062 11.5726 14.1939 11.2869 14.2397 10.9787C14.2854 10.6711 14.5704 10.4664 14.8801 10.5061ZM3.5895 10.9787C3.63525 11.2869 3.423 11.5726 3.11625 11.6192C2.29275 11.7422 1.875 11.9717 1.875 12.3001C1.875 12.4029 1.875 12.6159 2.38425 12.8102C2.6745 12.9204 2.82075 13.2459 2.70975 13.5361C2.62425 13.7604 2.4105 13.8984 2.184 13.8984C2.11725 13.8984 2.04975 13.8864 1.98375 13.8616C0.9105 13.4521 0.75 12.7074 0.75 12.3001C0.75 11.6327 1.13175 10.7784 2.94975 10.5061C3.2595 10.4671 3.543 10.6711 3.5895 10.9787ZM8.91495 3C10.8049 3 12.3417 4.5375 12.3417 6.42675C12.3417 8.316 10.8049 9.8535 8.91495 9.8535H8.8947C7.9797 9.8505 7.12245 9.492 6.48045 8.844C5.83695 8.19675 5.4852 7.33725 5.48892 6.4245C5.48892 4.5375 7.0257 3 8.91495 3ZM8.91495 4.125C7.64595 4.125 6.61393 5.15775 6.61393 6.42675C6.6117 7.04175 6.8472 7.617 7.27845 8.05125C7.7097 8.4855 8.2842 8.72625 8.8962 8.7285L8.91495 9.291V8.7285C10.1839 8.7285 11.2167 7.6965 11.2167 6.42675C11.2167 5.15775 10.1839 4.125 8.91495 4.125ZM13.5567 3.73462C14.8752 3.95138 15.833 5.07938 15.833 6.41663C15.83 7.76288 14.8242 8.91787 13.493 9.10462C13.4667 9.10837 13.4405 9.10987 13.415 9.10987C13.139 9.10987 12.8982 8.90663 12.8584 8.62538C12.8157 8.31713 13.0295 8.03288 13.3377 7.99013C14.1177 7.88063 14.7065 7.20413 14.708 6.41513C14.708 5.63288 14.1469 4.97138 13.3737 4.84462C13.0677 4.79438 12.86 4.50487 12.9102 4.19813C12.9612 3.89137 13.2485 3.68587 13.5567 3.73462ZM4.9197 4.19813C4.96995 4.50487 4.7622 4.79438 4.4562 4.84462C3.68295 4.97138 3.12195 5.63287 3.12195 6.41663C3.12345 7.20412 3.7122 7.88137 4.49145 7.99013C4.7997 8.03288 5.01345 8.31713 4.9707 8.62538C4.93095 8.90663 4.6902 9.10987 4.4142 9.10987C4.3887 9.10987 4.36245 9.10837 4.3362 9.10462C3.00495 8.91787 1.99995 7.76288 1.99695 6.41812C1.99695 5.07938 2.9547 3.95138 4.2732 3.73462C4.58895 3.68512 4.8687 3.89287 4.9197 4.19813Z" fill="#333168"/>
</svg>
