<svg width="18" height="18" viewBox="0 0 18 18" fill="none" xmlns="http://www.w3.org/2000/svg">
<path fill-rule="evenodd" clip-rule="evenodd" d="M11.961 8.26074C12.3757 8.26074 12.711 8.59599 12.711 9.01074C12.711 9.42549 12.3757 9.76074 11.961 9.76074C11.5462 9.76074 11.2072 9.42549 11.2072 9.01074C11.2072 8.59599 11.5395 8.26074 11.9535 8.26074H11.961ZM8.95371 8.26074C9.36846 8.26074 9.70371 8.59599 9.70371 9.01074C9.70371 9.42549 9.36846 9.76074 8.95371 9.76074C8.53896 9.76074 8.20071 9.42549 8.20071 9.01074C8.20071 8.59599 8.53221 8.26074 8.94696 8.26074H8.95371ZM5.94711 8.26074C6.36186 8.26074 6.69711 8.59599 6.69711 9.01074C6.69711 9.42549 6.36186 9.76074 5.94711 9.76074C5.53236 9.76074 5.19336 9.42549 5.19336 9.01074C5.19336 8.59599 5.52561 8.26074 5.94036 8.26074H5.94711Z" fill="#333168"/>
</svg>
