<svg width="20" height="20" viewBox="0 0 20 20" fill="none" xmlns="http://www.w3.org/2000/svg">
<path fill-rule="evenodd" clip-rule="evenodd" d="M10 15.6943C10.1279 15.7041 10.2524 15.7402 10.3662 15.8008L14.0571 17.7256C14.3677 17.8916 14.7471 17.8672 15.0322 17.6592C15.3228 17.458 15.4697 17.1064 15.4072 16.7588L14.666 12.6592C14.6172 12.3623 14.7163 12.0596 14.9321 11.8506L18.0488 8.90039C18.3052 8.65918 18.3994 8.29297 18.2905 7.95898C18.1748 7.625 17.8823 7.38379 17.5322 7.33398L13.3906 6.73242C13.0913 6.6875 12.832 6.49805 12.6987 6.22559L10.8496 2.5C10.7056 2.2207 10.4297 2.0332 10.1162 2H10V15.6943Z" fill="#333168" fill-opacity="0.2"/>
<path fill-rule="evenodd" clip-rule="evenodd" d="M10.0002 2.08301H9.76579L9.6237 2.1416L9.53288 2.1748C9.48308 2.2041 9.43816 2.24023 9.39909 2.2832L9.3239 2.3418C9.25652 2.40723 9.20036 2.4834 9.15739 2.56641L7.3322 6.30859C7.1906 6.5918 6.91374 6.7832 6.5988 6.81543L2.4572 7.41699C2.11296 7.4707 1.82829 7.71191 1.71648 8.04199C1.60124 8.37305 1.68913 8.73926 1.9406 8.9834L4.94987 11.9004C5.16569 12.1123 5.26482 12.417 5.2155 12.7158L4.4738 16.8154C4.39323 17.3115 4.72234 17.7822 5.2155 17.875C5.41814 17.9072 5.62468 17.875 5.8073 17.7832L9.4987 15.8496C9.56902 15.8105 9.64568 15.7861 9.7238 15.7744H9.94987C9.96648 15.7744 9.98357 15.7773 10.0002 15.7773V2.08301Z" fill="#333168"/>
</svg>
