<svg width="20" height="20" viewBox="0 0 20 20" fill="none" xmlns="http://www.w3.org/2000/svg">
<path d="M14.9317 11.933C14.7159 12.1422 14.6167 12.4447 14.6659 12.7413L15.4067 16.8413C15.4692 17.1888 15.3226 17.5405 15.0317 17.7413C14.7467 17.9497 14.3676 17.9747 14.0567 17.808L10.3659 15.883C10.2376 15.8147 10.0951 15.778 9.94925 15.7738H9.72341C9.64508 15.7855 9.56841 15.8105 9.49841 15.8488L5.80675 17.783C5.62425 17.8747 5.41758 17.9072 5.21508 17.8747C4.72175 17.7813 4.39258 17.3113 4.47341 16.8155L5.21508 12.7155C5.26425 12.4163 5.16508 12.1122 4.94925 11.8997L1.94008 8.98301C1.68841 8.73884 1.60091 8.37217 1.71591 8.04134C1.82758 7.71134 2.11258 7.47051 2.45675 7.41634L6.59841 6.81551C6.91341 6.78301 7.19008 6.59134 7.33175 6.30801L9.15674 2.56634C9.20008 2.48301 9.25591 2.40634 9.32341 2.34134L9.39841 2.28301C9.43758 2.23967 9.48258 2.20384 9.53258 2.17467L9.62341 2.14134L9.76508 2.08301H10.1159C10.4292 2.11551 10.7051 2.30301 10.8492 2.58301L12.6984 6.30801C12.8317 6.58051 13.0909 6.76967 13.3901 6.81551L17.5317 7.41634C17.8817 7.46634 18.1742 7.70801 18.2901 8.04134C18.3992 8.37551 18.3051 8.74217 18.0484 8.98301L14.9317 11.933Z" fill="#333168"/>
</svg>
