<svg width="44" height="44" viewBox="0 0 44 44" fill="none" xmlns="http://www.w3.org/2000/svg">
<path d="M21.6418 43.2837C9.7289 43.2837 0 33.5548 0 21.6418C0 9.7289 9.7289 0 21.6418 0C33.5548 0 43.2837 9.7289 43.2837 21.6418C43.2837 33.5548 33.5548 43.2837 21.6418 43.2837ZM21.6418 1.48912C10.5231 1.48912 1.48912 10.5231 1.48912 21.6418C1.48912 32.7606 10.5231 41.7945 21.6418 41.7945C32.7606 41.7945 41.7945 32.7606 41.7945 21.6418C41.7945 10.5231 32.7606 1.48912 21.6418 1.48912Z" fill="#333168"/>
<path d="M32.9593 14.6913C32.9593 14.6913 31.8673 15.4359 30.6263 15.1877C30.6263 15.1877 32.3636 14.0957 32.4629 12.3584C31.8176 14.195 29.5839 13.9964 29.5839 13.9964C28.343 12.4577 26.5064 12.4577 25.8115 12.5073C24.8188 12.5569 21.1456 12.954 21.5427 18.6127C21.5427 18.6127 14.8417 18.5134 11.4664 13.2519C10.3247 16.9747 13.1044 19.4069 13.1044 19.4069C11.7642 19.7047 10.8211 18.8609 10.8211 18.8609C11.516 22.7326 14.9906 23.5268 14.9906 23.5268C13.7497 24.2217 12.2109 23.7253 12.2109 23.7253C13.4022 26.7532 17.1746 26.9517 17.1746 26.9517C15.0402 29.5329 10.3247 29.5329 10.3247 29.5329C14.395 31.9155 30.7256 32.7097 30.7256 18.1163C30.7256 17.6696 30.676 17.2725 30.6263 16.8754V16.925C30.676 16.9747 32.4133 16.3294 32.9593 14.6913Z" fill="#333168"/>
</svg>
